<?xml version="1.0" standalone="no"?>
<!DOCTYPE svg PUBLIC "-//W3C//DTD SVG 20010904//EN"
 "http://www.w3.org/TR/2001/REC-SVG-20010904/DTD/svg10.dtd">
<svg version="1.0" xmlns="http://www.w3.org/2000/svg"
 width="300.000000pt" height="300.000000pt" viewBox="0 0 300.000000 300.000000"
 preserveAspectRatio="xMidYMid meet">
<metadata>
Created by potrace 1.10, written by Peter Selinger 2001-2011
</metadata>
<g transform="translate(0.000000,300.000000) scale(0.100000,-0.100000)"
fill="#000000" stroke="none">
<path d="M990 2356 c0 -14 95 -68 142 -80 50 -13 51 -15 28 -24 -52 -20 -173
-34 -238 -28 l-67 7 30 -21 c48 -33 131 -53 192 -47 29 3 53 4 53 2 0 -2 -16
-13 -36 -24 -39 -23 -165 -133 -160 -139 2 -2 33 12 67 30 35 18 68 35 72 37
5 2 -3 -15 -18 -37 -30 -46 -125 -255 -119 -261 2 -3 12 6 21 20 20 29 145
160 149 156 2 -1 -37 -103 -87 -226 -49 -124 -88 -226 -86 -227 3 -4 239 252
250 272 18 32 -24 11 -77 -37 -31 -28 -56 -47 -56 -41 0 9 20 63 40 107 5 11
17 46 26 78 21 68 12 93 -30 90 -31 -2 -31 -1 -10 39 9 18 14 42 10 58 -4 20
1 33 15 46 34 30 42 53 27 71 -11 13 -10 18 6 27 47 28 65 48 63 69 -2 20 5
22 97 36 90 13 104 13 163 -3 70 -18 135 -54 152 -83 10 -17 10 -16 11 3 l0
20 83 -20 82 -21 -75 -3 c-47 -2 -69 -6 -61 -12 11 -6 -3 -17 -50 -39 -82 -38
-90 -45 -122 -110 -31 -63 -36 -147 -12 -202 8 -19 14 -27 15 -20 0 10 13 2
35 -19 19 -19 35 -39 35 -44 -1 -12 -45 -66 -55 -66 -3 0 -6 15 -6 33 -1 29
-2 28 -8 -10 -7 -43 -25 -73 -45 -73 -6 0 -24 -18 -39 -38 -15 -21 -107 -117
-204 -213 -201 -199 -198 -200 -98 36 90 214 117 290 113 322 -3 26 -6 24 -30
-27 -15 -30 -52 -118 -83 -195 -32 -77 -70 -171 -85 -210 -52 -127 -110 -275
-110 -280 0 -2 39 37 87 88 48 51 224 229 390 397 167 168 303 311 303 317 0
25 -19 21 -56 -12 -21 -19 -40 -35 -43 -35 -4 0 -27 18 -53 41 -46 39 -48 43
-48 92 1 100 55 173 153 202 72 22 194 38 226 30 l26 -7 -25 28 c-34 36 -130
81 -193 89 -29 4 -64 16 -79 26 -83 59 -174 72 -343 48 -71 -10 -175 -2 -237
17 -10 3 -18 3 -18 0z"/>
<path d="M1421 2274 c-38 -31 -39 -60 -6 -97 31 -33 64 -35 93 -4 36 38 25 85
-28 112 -27 14 -30 13 -59 -11z m76 -51 c4 -9 -1 -21 -12 -29 -26 -19 -32 -18
-52 12 -16 25 -16 27 1 40 21 15 53 4 63 -23z"/>
<path d="M2070 2073 l0 -95 29 24 c28 21 30 28 30 94 l1 71 -30 0 -30 0 0 -94z"/>
<path d="M1430 2053 c-47 -56 -67 -124 -68 -228 l0 -90 9 80 c12 103 42 197
75 240 35 47 23 45 -16 -2z"/>
<path d="M1960 2055 c0 -14 2 -25 4 -25 2 0 11 -3 20 -6 13 -5 16 1 16 25 0
24 -4 31 -20 31 -15 0 -20 -7 -20 -25z"/>
<path d="M2195 1992 c-27 -34 -50 -67 -50 -74 0 -24 30 -17 68 16 35 31 38 38
35 77 l-3 43 -50 -62z"/>
<path d="M1753 1922 l-53 -18 228 -227 c125 -125 230 -227 233 -227 12 0 17
195 7 249 -17 96 -50 146 -128 196 -67 44 -70 45 -152 44 -50 0 -104 -7 -135
-17z m202 -24 c3 -3 8 -28 11 -57 4 -40 2 -51 -9 -51 -7 0 -55 24 -106 53
l-92 52 48 6 c51 7 140 5 148 -3z m123 -85 c-8 -10 -7 -13 4 -13 17 0 48 -60
48 -93 0 -12 7 -44 15 -70 17 -57 17 -57 -87 36 l-78 70 0 78 0 77 55 -36 c42
-28 52 -39 43 -49z m-164 -20 c25 -15 47 -37 50 -49 3 -12 23 -36 43 -54 100
-84 145 -140 114 -140 -12 0 -249 229 -262 253 -14 25 2 22 55 -10z"/>
<path d="M1441 1520 l-278 -275 -63 -145 c-34 -80 -85 -193 -111 -252 -27 -59
-49 -110 -49 -114 0 -4 14 10 30 31 39 50 396 421 667 695 l213 216 -65 60
-65 60 -279 -276z m339 150 c0 -9 -46 -61 -101 -116 -56 -54 -210 -211 -343
-348 -137 -142 -242 -243 -244 -234 -1 8 20 67 49 131 l51 117 142 142 c78 79
197 197 265 262 l122 119 29 -28 c17 -16 30 -36 30 -45z"/>
<path d="M915 1677 c-21 -16 -12 -37 16 -37 14 0 19 7 19 25 0 28 -8 31 -35
12z"/>
<path d="M1607 1365 l-268 -272 116 -114 c64 -63 120 -115 123 -117 4 -1 128
119 276 267 l269 269 -124 121 c-68 66 -123 120 -124 120 0 -1 -121 -124 -268
-274z m397 98 c46 -40 57 -55 51 -71 -3 -12 -84 -96 -179 -189 -95 -92 -198
-197 -229 -232 -76 -86 -75 -76 7 102 20 43 33 76 29 73 -8 -5 -19 -26 -73
-143 -19 -40 -38 -73 -42 -73 -13 0 -168 151 -168 163 0 15 449 462 456 454
10 -10 -18 -155 -35 -181 -9 -13 -27 -39 -40 -58 -21 -29 -19 -28 22 11 43 42
46 48 62 135 8 50 18 104 21 119 l6 28 27 -43 c15 -24 54 -67 85 -95z"/>
<path d="M962 1437 c-37 -38 -40 -52 -13 -67 26 -13 28 -13 36 8 12 28 23 92
16 92 -4 0 -21 -15 -39 -33z"/>
<path d="M2130 1342 c0 -11 12 -27 26 -37 25 -16 26 -16 22 6 -2 12 -13 28
-25 37 -21 13 -23 13 -23 -6z"/>
<path d="M2065 1231 c-8 -15 3 -31 21 -31 9 0 14 7 12 17 -4 20 -24 28 -33 14z"/>
<path d="M1450 592 l-55 -4 45 -14 c63 -19 266 -19 273 0 5 11 -8 16 -56 21
-34 3 -82 5 -107 3 -25 -2 -70 -5 -100 -6z"/>
</g>
</svg>
